<svg width="78" height="78" viewBox="0 0 78 78" fill="none" xmlns="http://www.w3.org/2000/svg">
<g filter="url(#filter0_d)">
<circle cx="39" cy="35" r="35" fill="#FA6900"/>
<path d="M29 21.8333V38.1667" stroke="white" stroke-width="2.33333" stroke-linecap="round" stroke-linejoin="round"/>
<path d="M20.8333 30H37.1667" stroke="white" stroke-width="2.33333" stroke-linecap="round" stroke-linejoin="round"/>
<path d="M57.3333 50.5V48.1667C57.3333 46.929 56.8417 45.742 55.9665 44.8668C55.0913 43.9917 53.9043 43.5 52.6667 43.5H43.3333C42.0956 43.5 40.9087 43.9917 40.0335 44.8668C39.1583 45.742 38.6667 46.929 38.6667 48.1667V50.5" stroke="white" stroke-width="2.33333" stroke-linecap="round" stroke-linejoin="round"/>
<path d="M48 38.8333C50.5773 38.8333 52.6666 36.744 52.6666 34.1667C52.6666 31.5893 50.5773 29.5 48 29.5C45.4227 29.5 43.3333 31.5893 43.3333 34.1667C43.3333 36.744 45.4227 38.8333 48 38.8333Z" stroke="white" stroke-width="2.33333" stroke-linecap="round" stroke-linejoin="round"/>
</g>
<defs>
<filter id="filter0_d" x="0" y="0" width="78" height="78" filterUnits="userSpaceOnUse" color-interpolation-filters="sRGB">
<feFlood flood-opacity="0" result="BackgroundImageFix"/>
<feColorMatrix in="SourceAlpha" type="matrix" values="0 0 0 0 0 0 0 0 0 0 0 0 0 0 0 0 0 0 127 0"/>
<feOffset dy="4"/>
<feGaussianBlur stdDeviation="2"/>
<feColorMatrix type="matrix" values="0 0 0 0 0 0 0 0 0 0 0 0 0 0 0 0 0 0 0.5 0"/>
<feBlend mode="normal" in2="BackgroundImageFix" result="effect1_dropShadow"/>
<feBlend mode="normal" in="SourceGraphic" in2="effect1_dropShadow" result="shape"/>
</filter>
</defs>
</svg>
