<svg width="31" height="32" viewBox="0 0 31 32" fill="none" xmlns="http://www.w3.org/2000/svg">
<path d="M25.2173 9.67613H5.10295C3.71434 9.67613 2.58865 10.8018 2.58865 12.1904V24.7619C2.58865 26.1505 3.71434 27.2762 5.10295 27.2762H25.2173C26.606 27.2762 27.7316 26.1505 27.7316 24.7619V12.1904C27.7316 10.8018 26.606 9.67613 25.2173 9.67613Z" stroke="black" stroke-width="2.01144" stroke-linecap="round" stroke-linejoin="round"/>
<path d="M20.1887 27.2762V7.16182C20.1887 6.49499 19.9238 5.85547 19.4523 5.38394C18.9808 4.91242 18.3413 4.64752 17.6744 4.64752H12.6458C11.979 4.64752 11.3395 4.91242 10.868 5.38394C10.3964 5.85547 10.1315 6.49499 10.1315 7.16182V27.2762" stroke="black" stroke-width="2.01144" stroke-linecap="round" stroke-linejoin="round"/>
</svg>
