<svg width="46" height="46" viewBox="0 0 46 46" fill="none" xmlns="http://www.w3.org/2000/svg">
<path d="M30.1716 41.4859V34.1882C30.2423 33.289 30.1209 32.3851 29.8152 31.5365C29.5096 30.6879 29.0268 29.914 28.399 29.2665C34.3202 28.6064 40.5431 26.3624 40.5431 16.0664C40.5426 13.4336 39.5299 10.9018 37.7145 8.99491C38.5741 6.69151 38.5133 4.14549 37.5448 1.88573C37.5448 1.88573 35.3196 1.22573 30.1716 4.6766C25.8495 3.50523 21.2936 3.50523 16.9715 4.6766C11.8235 1.22573 9.59834 1.88573 9.59834 1.88573C8.62979 4.14549 8.56901 6.69151 9.42863 8.99491C7.59971 10.9159 6.58594 13.4706 6.60004 16.1229C6.60004 26.3436 12.8229 28.5876 18.7441 29.323C18.1237 29.9641 17.6452 30.7287 17.3398 31.5669C17.0344 32.4051 16.9089 33.2983 16.9715 34.1882V41.4859M16.9715 35.8288C7.5429 38.6574 7.5429 31.1145 3.77145 30.1716L16.9715 35.8288Z" stroke="black" stroke-width="2.01144" stroke-linecap="round" stroke-linejoin="round"/>
</svg>
