<svg width="41" height="40" viewBox="0 0 41 40" fill="none" xmlns="http://www.w3.org/2000/svg">
<path d="M38.0139 0L2.23611 0C0.999542 0 0 0.995556 0 2.22222L0 37.7778C0 39.0044 0.999542 40 2.23611 40H38.0139C39.2505 40 40.25 39.0044 40.25 37.7778V2.22222C40.25 0.995556 39.2505 0 38.0139 0ZM11.9386 34.0822H5.96371V14.9933H11.9386V34.0822ZM8.95115 12.3867C7.03704 12.3867 5.48965 10.8444 5.48965 8.94667C5.48965 7.04889 7.03481 5.50667 8.95115 5.50667C10.8608 5.50667 12.4127 7.04667 12.4127 8.94667C12.4127 10.8467 10.8608 12.3867 8.95115 12.3867ZM34.2975 34.0822H28.3293V24.8C28.3293 22.5867 28.289 19.74 25.2256 19.74C22.1174 19.74 21.6456 22.1533 21.6456 24.6444V34.0844H15.6818V14.9956H21.4063V17.6044H21.489C22.2828 16.1044 24.2327 14.5222 27.133 14.5222C33.1794 14.5222 34.2952 18.4733 34.2952 23.6156V34.0822H34.2975Z" fill="black"/>
</svg>
