<svg width="28" height="28" viewBox="0 0 28 28" fill="none" xmlns="http://www.w3.org/2000/svg">
<g clip-path="url(#clip0)">
<path d="M28.2028 17.4068V20.9068C28.2041 21.2317 28.1376 21.5533 28.0074 21.851C27.8772 22.1487 27.6863 22.416 27.4469 22.6356C27.2075 22.8553 26.9248 23.0225 26.617 23.1266C26.3092 23.2307 25.9831 23.2694 25.6595 23.2401C22.0694 22.85 18.621 21.6233 15.5911 19.6584C12.7723 17.8672 10.3824 15.4773 8.59114 12.6584C6.61944 9.61485 5.39242 6.14961 5.00947 2.54345C4.98032 2.22082 5.01866 1.89567 5.12205 1.58867C5.22545 1.28168 5.39164 0.999584 5.61003 0.760338C5.82842 0.521092 6.09424 0.329941 6.39056 0.199055C6.68688 0.0681701 7.0072 0.00041817 7.33114 0.000113111H10.8311C11.3973 -0.00545941 11.9462 0.195038 12.3755 0.564235C12.8048 0.933431 13.0852 1.44613 13.1645 2.00678C13.3122 3.12686 13.5862 4.22663 13.9811 5.28511C14.1381 5.70269 14.1721 6.15651 14.079 6.59281C13.986 7.0291 13.7698 7.42958 13.4561 7.74678L11.9745 9.22845C13.6353 12.1492 16.0537 14.5676 18.9745 16.2284L20.4561 14.7468C20.7733 14.4331 21.1738 14.2169 21.6101 14.1239C22.0464 14.0308 22.5002 14.0648 22.9178 14.2218C23.9763 14.6168 25.0761 14.8907 26.1961 15.0384C26.7629 15.1184 27.2804 15.4039 27.6504 15.8405C28.0204 16.2772 28.217 16.8346 28.2028 17.4068Z" stroke="white" stroke-width="2.33333" stroke-linecap="round" stroke-linejoin="round"/>
</g>
<defs>
<clipPath id="clip0">
<rect width="28" height="28" fill="white"/>
</clipPath>
</defs>
</svg>
