<svg width="39" height="41" viewBox="0 0 39 41" fill="none" xmlns="http://www.w3.org/2000/svg">
<path fill-rule="evenodd" clip-rule="evenodd" d="M29.3047 9.44203C26.6056 6.59752 23.0164 5.03027 19.1931 5.02859C11.3139 5.02859 4.89977 11.7787 4.89659 20.0758C4.89659 22.7276 5.55425 25.3156 6.80427 27.5986L4.77716 35.3946L12.3553 33.3011C14.4446 34.4995 16.7949 35.1315 19.1867 35.1331H19.1931C27.0706 35.1331 33.4848 28.3831 33.4879 20.0859C33.4879 16.0664 32.0038 12.2865 29.3047 9.44203ZM19.1931 32.5937H19.1883C17.0561 32.592 14.9653 31.9903 13.1404 30.8488L12.7073 30.5772L8.21035 31.8193L9.40942 27.2047L9.12757 26.732C7.93805 24.7407 7.31065 22.4393 7.31065 20.0758C7.31384 13.18 12.6436 7.56971 19.1978 7.56971C22.3715 7.57139 25.354 8.8738 27.5977 11.2372C29.8398 13.6024 31.0755 16.7436 31.0739 20.0859C31.0707 26.9818 25.741 32.5937 19.1931 32.5937ZM25.7107 23.2254C25.3524 23.036 23.5976 22.1275 23.2696 22.0018C22.9431 21.8761 22.7059 21.8141 22.467 22.1895C22.2282 22.565 21.5434 23.4115 21.3348 23.6629C21.1262 23.9143 20.9176 23.9445 20.5609 23.7568C20.2042 23.569 19.0529 23.1718 17.6883 21.8912C16.6261 20.8938 15.9096 19.6635 15.701 19.2863C15.4923 18.9092 15.6787 18.7064 15.8586 18.5186C16.0194 18.351 16.2153 18.0795 16.3936 17.8599C16.572 17.6403 16.6309 17.4844 16.7503 17.233C16.8698 16.9816 16.8108 16.762 16.7201 16.5743C16.6309 16.3848 15.9159 14.5343 15.6181 13.7817C15.3299 13.0526 15.0353 13.1498 14.8156 13.1397C14.6086 13.1297 14.3697 13.1263 14.1324 13.1263C13.8936 13.1263 13.5066 13.2202 13.1786 13.5957C12.8506 13.9728 11.9286 14.8813 11.9286 16.7318C11.9286 18.5823 13.2089 20.3709 13.3872 20.6223C13.5656 20.8737 15.9064 24.6703 19.4892 26.2996C20.3428 26.6868 21.0084 26.9181 21.5259 27.0924C22.381 27.379 23.1597 27.3371 23.776 27.2416C24.4623 27.1343 25.8891 26.3331 26.1868 25.4548C26.4846 24.5764 26.4846 23.8238 26.3954 23.6663C26.3063 23.5087 26.0658 23.4132 25.7107 23.2254Z" fill="black"/>
</svg>
